<svg width="36" height="29" viewBox="0 0 36 29" fill="none" xmlns="http://www.w3.org/2000/svg">
<g id="&#240;&#159;&#166;&#134; icon &#34;arrow right 1&#34;">
<g id="Group">
<path id="Vector" d="M12.9792 0.194309C13.341 0.194309 13.7027 0.341173 13.9883 0.65587C14.5404 1.26429 14.5404 2.27133 13.9883 2.87974L3.44116 14.5026L13.9883 26.1255C14.5404 26.7339 14.5404 27.7409 13.9883 28.3494C13.4362 28.9578 12.5223 28.9578 11.9702 28.3494L0.414107 15.6146C-0.137998 15.0061 -0.137998 13.9991 0.414107 13.3907L11.9702 0.65587C12.2558 0.341173 12.6175 0.194309 12.9792 0.194309Z" fill="white"/>
<path id="Vector_2" d="M1.74491 12.9294L33.786 12.9294C34.5666 12.9294 35.2139 13.6427 35.2139 14.5029C35.2139 15.3631 34.5666 16.0764 33.786 16.0764L1.74491 16.0764C0.964348 16.0764 0.317051 15.3631 0.317051 14.5029C0.317051 13.6427 0.964348 12.9294 1.74491 12.9294Z" fill="white"/>
</g>
</g>
</svg>
